<?xml version="1.0" encoding="UTF-8" standalone="no"?>
<!-- Created with Inkscape (http://www.inkscape.org/) -->

<svg
   xmlns:dc="http://purl.org/dc/elements/1.1/"
   xmlns:cc="http://creativecommons.org/ns#"
   xmlns:rdf="http://www.w3.org/1999/02/22-rdf-syntax-ns#"
   xmlns:svg="http://www.w3.org/2000/svg"
   xmlns="http://www.w3.org/2000/svg"
   xmlns:xlink="http://www.w3.org/1999/xlink"
   xmlns:sodipodi="http://sodipodi.sourceforge.net/DTD/sodipodi-0.dtd"
   xmlns:inkscape="http://www.inkscape.org/namespaces/inkscape"
   width="220.27mm"
   height="205.8766mm"
   viewBox="0 0 220.27 205.8766"
   version="1.1"
   id="svg8"
   inkscape:version="0.92.4 (5da689c313, 2019-01-14)"
   sodipodi:docname="eye3.svg">
  <defs
     id="defs2">
    <linearGradient
       inkscape:collect="always"
       id="linearGradient1023">
      <stop
         style="stop-color:#9bfff0;stop-opacity:1"
         offset="0"
         id="stop1019" />
      <stop
         style="stop-color:#0587ff;stop-opacity:1"
         offset="1"
         id="stop1021" />
    </linearGradient>
    <linearGradient
       inkscape:collect="always"
       xlink:href="#linearGradient1023"
       id="linearGradient1025"
       x1="126.95399"
       y1="225.12244"
       x2="94.922424"
       y2="151.30278"
       gradientUnits="userSpaceOnUse" />
  </defs>
  <sodipodi:namedview
     id="base"
     pagecolor="#ffffff"
     bordercolor="#666666"
     borderopacity="1.0"
     inkscape:pageopacity="0.0"
     inkscape:pageshadow="2"
     inkscape:zoom="0.49497475"
     inkscape:cx="424.09568"
     inkscape:cy="190.61196"
     inkscape:document-units="mm"
     inkscape:current-layer="layer2"
     showgrid="false"
     fit-margin-top="0"
     fit-margin-left="0"
     fit-margin-right="0"
     fit-margin-bottom="0"
     inkscape:window-width="1920"
     inkscape:window-height="1017"
     inkscape:window-x="1912"
     inkscape:window-y="-8"
     inkscape:window-maximized="1" />
  <metadata
     id="metadata5">
    <rdf:RDF>
      <cc:Work
         rdf:about="">
        <dc:format>image/svg+xml</dc:format>
        <dc:type
           rdf:resource="http://purl.org/dc/dcmitype/StillImage" />
        <dc:title></dc:title>
      </cc:Work>
    </rdf:RDF>
  </metadata>
  <g
     inkscape:groupmode="layer"
     id="layer2"
     inkscape:label="Layer 2"
     transform="translate(-28.185308,-18.973293)">
    <rect
       style="opacity:1;fill:#05a4ff;fill-opacity:1;stroke:none;stroke-width:3.67064619;stroke-miterlimit:4;stroke-dasharray:none;stroke-opacity:0.98039216"
       id="rect1000"
       width="220.27"
       height="205.8766"
       x="28.185308"
       y="18.973293" />
  </g>
  <g
     inkscape:label="Layer 1"
     inkscape:groupmode="layer"
     id="layer1"
     transform="translate(-10.470834,-61.771699)">
    <path
       style="fill:#000000;stroke-width:0.35277778"
       d=""
       id="path878"
       inkscape:connector-curvature="0" />
    <g
       id="g949"
       transform="translate(-2.0427028,42.618858)"
       style="fill:#fffff0;fill-opacity:1">
      <g
         transform="translate(0.30839765,-6.9148269)"
         id="layer1-8"
         inkscape:label="Layer 1"
         style="fill:#fffff0;fill-opacity:1" />
      <g
         transform="translate(0.72074854,25.669866)"
         inkscape:label="Layer 2"
         id="layer2-1"
         style="fill:#fffff0;fill-opacity:1">
        <path
           transform="translate(-0.41235089,-32.584693)"
           inkscape:connector-curvature="0"
           id="path2203-0"
           d="m 101.08136,206.58514 c -6.283819,-0.84974 -14.706329,-3.27544 -20.596299,-5.93177 -1.71154,-0.77188 -2.30954,-0.85847 -5.01722,-0.72648 -1.94177,0.0947 -4.14974,0.48567 -5.99436,1.06155 -4.99884,1.56059 -10.11561,2.51354 -15.79667,2.94196 -3.00743,0.22679 -6.43656,0.48983 -7.62028,0.58452 -3.85377,0.30829 -6.36394,-0.86968 -7.58574,-3.55981 -1.28251,-2.82382 -0.42318,-5.71847 2.24202,-7.55217 1.34829,-0.92765 1.65217,-1.3723 2.13799,-3.12845 1.35765,-4.90761 1.66445,-13.66564 0.58457,-16.68738 -0.38137,-1.06716 -1.16994,-4.07465 -1.75237,-6.68332 -1.39503,-6.24819 -1.40063,-10.08214 -0.0291,-19.95141 0.8824,-6.34972 1.25445,-8.03845 2.60368,-11.81805 3.77212,-10.56678 5.82952,-15.71205 8.41169,-21.03644 2.0855,-4.30029 7.45906,-12.75561 10.14618,-15.96508 1.43978,-1.71966 1.44143,-1.725081 1.09056,-3.575191 -0.95672,-5.044802 -0.0189,-10.664391 2.15393,-12.906142 l 1.13773,-1.17384 -0.66157,-3.451513 c -0.83783,-4.371078 -0.83248,-10.37023 0.0118,-13.26537 0.84552,-2.899296 2.1363,-4.236214 4.81591,-4.988076 2.4698,-0.69299 3.30506,-0.598727 5.9996,0.677076 2.69524,1.276135 4.83235,3.480029 6.46835,6.670478 0.77196,1.505439 1.45911,2.528538 1.52699,2.273551 0.38312,-1.439095 1.65407,-4.09997 2.2875,-4.789112 1.165,-1.26748 2.95055,-1.580306 5.39135,-0.944558 2.47679,0.645119 3.46658,1.511087 5.289032,4.627336 l 1.35464,2.316321 0.481157,-1.895136 c 1.19691,-4.714203 5.0762,-11.723509 8.64876,-15.627063 2.93473,-3.206605 6.09442,-5.141684 8.39561,-5.141684 1.9538,0 4.80395,0.987729 6.07799,2.106347 2.31801,2.035235 4.67248,7.93962 5.34982,13.415875 0.13199,1.067154 0.53413,3.289654 0.89363,4.938889 0.3595,1.649235 0.75094,3.593925 0.86987,4.321527 0.11893,0.727604 0.33065,1.322919 0.47048,1.322919 0.13984,0 1.41519,-2.341565 2.83415,-5.203473 3.84819,-7.761496 7.13544,-13.215772 10.25872,-17.021528 6.64896,-8.101812 13.06323,-12.739633 19.7181,-14.257117 2.29365,-0.52301 3.81334,-0.337614 6.9431,0.847024 3.10026,1.173478 5.01349,5.254828 4.60568,9.824985 -0.31791,3.562754 -2.69557,9.934437 -6.83389,18.313579 -0.79058,1.60073 -1.29574,2.910417 -1.12259,2.910417 0.17315,0 1.36136,-0.792123 2.64047,-1.760275 4.08512,-3.092017 10.12314,-6.917207 13.93949,-8.830905 2.0373,-1.021594 4.63965,-2.330756 5.78301,-2.90925 5.9282,-2.999434 15.50411,-2.104831 18.91206,1.766808 1.64419,1.867903 2.8216,4.176431 2.8216,5.532276 0,5.897459 -6.83006,15.704941 -19.1672,27.522733 -3.42513,3.280958 -6.16731,6.025581 -6.09373,6.099162 0.0736,0.0736 1.44344,-0.13158 3.04414,-0.45592 4.35802,-0.883052 8.03965,-0.57327 10.6856,0.89911 2.22208,1.236509 4.29881,3.57015 5.78225,6.49759 0.80033,1.57936 0.87281,2.0369 0.6694,4.2255 -0.26235,2.82277 -0.89645,4.03554 -3.2746,6.26298 -0.90459,0.84726 -2.1334,2.07842 -2.7307,2.73592 -2.08633,2.29662 -3.6714,3.61857 -6.24964,5.21221 -2.51749,1.55609 -6.63484,3.60162 -8.42434,4.18527 -0.70291,0.22926 -0.28368,0.38167 2.12271,0.77175 5.21129,0.84474 9.51922,3.65141 10.06432,6.55703 0.32611,1.7383 -0.22506,3.32482 -1.96188,5.64725 -1.46411,1.95778 -1.78175,2.16562 -7.90074,5.16986 -3.50642,1.72155 -6.81337,3.23998 -7.34878,3.37429 -1.15274,0.28919 -1.63484,0.87161 -0.72147,0.87161 1.22931,0 5.12288,2.59331 5.82622,3.88055 1.36931,2.50612 -0.0246,7.06093 -2.72017,8.88874 -3.06335,2.07718 -12.22202,5.92793 -14.09906,5.92793 -0.98249,0 -1.19798,0.26631 -4.81897,5.95558 -7.39162,11.61364 -20.72898,23.80117 -31.84876,29.10302 -4.2676,2.03478 -7.68274,3.24953 -12.20403,4.34092 -4.61408,1.11378 -13.29788,1.41402 -18.91768,0.65407 z m 12.28925,-11.8694 c 9.95021,-1.07132 19.21388,-6.19026 29.51143,-16.3075 6.9015,-6.78065 11.42953,-13.03114 14.70264,-20.29552 4.279,-9.49685 6.15879,-17.81241 6.15879,-27.24446 0,-20.05919 -11.0142,-30.890529 -33.66335,-33.104459 -5.16475,-0.504852 -8.59322,-0.46966 -14.49082,0.14873 -5.08565,0.533249 -6.45293,0.774269 -11.28888,1.98992 C 92.752231,102.8054 82.959341,109.09634 72.626071,120.25 c -8.33676,8.99865 -13.87592,19.08953 -15.45439,28.1538 -0.58582,3.36401 -0.21873,9.54253 0.75215,12.65969 2.13457,6.85331 6.12253,11.93366 11.31818,14.41845 4.74425,2.2689 7.39546,2.78702 14.42091,2.81824 6.75352,0.03 9.91567,-0.41475 16.404159,-2.30728 3.37552,-0.98455 8.54644,-2.93063 9.06609,-3.41203 0.13566,-0.12567 -2.48372,-0.23983 -5.82083,-0.2537 -5.337237,-0.0222 -6.385137,-0.12483 -8.706869,-0.85294 -7.91204,-2.48127 -13.08455,-6.44686 -16.02502,-12.28585 -4.16978,-8.28008 -2.61959,-17.8635 4.45263,-27.52645 1.37898,-1.88414 6.91127,-7.60906 8.67038,-8.97228 5.819482,-4.5098 11.727089,-7.20396 19.062059,-8.69325 2.68984,-0.54614 9.68794,-0.47013 12.59726,0.13684 5.98249,1.24811 9.91554,3.29071 13.81198,7.17316 1.61676,1.61097 3.34099,3.67472 3.83162,4.58611 0.49062,0.91141 1.26497,2.17005 1.72077,2.79699 1.60684,2.21016 2.14312,5.55128 2.13864,13.324 -0.004,7.33504 -0.24643,9.1049 -1.97935,14.46388 -0.88534,2.73788 -2.76047,7.16348 -3.5126,8.29028 -0.32378,0.48507 -0.88651,1.38029 -1.2505,1.98938 -1.90475,3.18729 -3.5293,5.18791 -6.54879,8.06479 -3.60002,3.42999 -5.60139,5.09297 -6.98941,5.80766 -0.48507,0.24977 -1.19945,0.73531 -1.5875,1.07899 -1.84862,1.63722 -11.34495,6.02301 -16.40417,7.5761 -1.06715,0.3276 -2.33715,0.74145 -2.82222,0.91967 -0.48507,0.17823 -3.10445,0.77547 -5.820827,1.32721 l -4.938892,1.00316 1.94027,0.54409 c 3.652752,1.0243 5.822919,1.43789 8.819449,1.68082 4.67457,0.37896 5.71707,0.37421 9.59936,-0.0438 z M 109.7895,157.6684 c 8.56272,-2.15465 16.33491,-8.20162 19.52738,-15.19282 1.33067,-2.91403 1.75142,-4.74758 1.40561,-6.12538 -0.21816,-0.86924 -0.34658,-0.9283 -1.64101,-0.75468 -2.44272,0.32763 -5.86103,2.29028 -8.38511,4.81436 -2.37761,2.37761 -3.7947,4.81488 -5.0841,8.74418 -1.4238,4.33886 -6.39368,5.70431 -9.74433,2.6772 -1.6993,-1.53522 -2.09269,-2.73218 -2.19301,-6.67268 -0.0739,-2.90094 0.008,-3.33056 1.05882,-5.53444 2.03025,-4.25943 4.93635,-7.87621 9.09167,-11.31505 0.58208,-0.48172 0.96551,-0.96895 0.85206,-1.08273 -0.34001,-0.34102 -5.63223,1.14707 -7.97029,2.24112 -6.32956,2.9618 -12.787839,9.29219 -15.320069,15.01673 -1.05858,2.39309 -1.28233,5.74017 -0.5176,7.7426 1.9359,5.06907 10.552169,7.54721 18.919979,5.44159 z"
           style="fill:#fffff0;fill-opacity:1;stroke:none;stroke-width:0.35277778;stroke-opacity:1" />
      </g>
    </g>
    <ellipse
       style="opacity:1;fill:#fffff0;fill-opacity:1;stroke:none;stroke-width:2.64583325;stroke-miterlimit:4;stroke-dasharray:none;stroke-opacity:0.98039216"
       id="path1015"
       cx="110.04148"
       cy="179.27303"
       rx="40.065475"
       ry="39.309525" />
    <ellipse
       style="opacity:1;fill:url(#linearGradient1025);fill-opacity:1;stroke:none;stroke-width:2.50270772;stroke-miterlimit:4;stroke-dasharray:none;stroke-opacity:0.98039216"
       id="path1017"
       cx="109.28553"
       cy="177.76109"
       rx="25.702379"
       ry="24.946428" />
  </g>
</svg>
